<svg xmlns="http://www.w3.org/2000/svg" width="68" height="85" viewBox="0 0 68 85"><g><g opacity="1"><path fill="#fff" d="M0 25.5h1.416a7.072 7.072 0 0 0 5.667 2.833c.546 0 1.078-.062 1.589-.18C9.608 31.477 14.249 34 19.832 34c4.707 0 8.744-1.793 10.456-4.345 2.04 2.623 5.479 4.345 9.378 4.345 5.71 0 10.433-3.694 11.218-8.5H51V34h5.667v.1a10 10 0 0 1 1.417-.1c5.476 0 9.916 4.44 9.916 9.917V63.75c0 5.477-4.44 9.917-9.916 9.917a10 10 0 0 1-1.417-.1v.1h-5.667V76.5h-.142a7.083 7.083 0 0 1-6.942 8.5H7.084A7.083 7.083 0 0 1 .14 76.5H0zm62.332 34V48.166a5.667 5.667 0 0 0-5.666-5.667h-5.667v22.667h5.667a5.667 5.667 0 0 0 5.666-5.666zM8.5 70.833h5.667V39.666H8.499zm14.167 0h5.667V39.666h-5.667zm14.166 0H42.5V39.666h-5.667zM22.666-.001c5.765 0 10.524 4.304 11.24 9.875a12.528 12.528 0 0 1 5.76-1.375c6.26 0 11.333 4.44 11.333 9.917 0 5.477-5.074 9.917-11.333 9.917-3.9 0-7.338-1.723-9.378-4.346-1.713 2.553-5.749 4.346-10.456 4.346-5.583 0-10.224-2.524-11.16-5.846a7.083 7.083 0 1 1 2.741-12.51c.67-5.62 5.453-9.978 11.253-9.978z"/></g></g></svg>
