<svg xmlns="http://www.w3.org/2000/svg" width="80" height="70" viewBox="0 0 80 70"><g><g><path fill="#fff" d="M7.5 10h17.578A4.4 4.4 0 0 1 25 9.166V3.333C25 1.492 26.12 0 27.5 0h25C53.88 0 55 1.492 55 3.333v5.833a4.4 4.4 0 0 1-.078.834h17.578a7.5 7.5 0 0 1 7.5 7.5v45a7.5 7.5 0 0 1-7.5 7.5h-65A7.5 7.5 0 0 1 0 62.5v-45A7.5 7.5 0 0 1 7.5 10zm10 30c0 12.426 10.073 22.5 22.5 22.5 12.426 0 22.5-10.074 22.5-22.5 0-12.427-10.074-22.5-22.5-22.5-12.427 0-22.5 10.073-22.5 22.5zM40 25c8.284 0 15 6.715 15 15 0 8.284-6.716 15-15 15-8.285 0-15-6.716-15-15 0-8.285 6.715-15 15-15zm-5 15a5 5 0 1 0 9.999 0 5 5 0 0 0-10 0zM30 7.5h20V5H30z"/></g></g></svg>