<svg xmlns="http://www.w3.org/2000/svg" width="76" height="76" viewBox="0 0 76 76"><g><g><path fill="#fff" d="M71.25 23.75A4.75 4.75 0 0 1 76 28.5v42.75A4.75 4.75 0 0 1 71.25 76h-57a4.75 4.75 0 0 1-4.75-4.75v-2.375h57v-38H54.625V23.75zM4.75 0H47.5a4.75 4.75 0 0 1 4.75 4.75v57a4.75 4.75 0 0 1-4.75 4.75H4.75A4.75 4.75 0 0 1 0 61.75v-57A4.75 4.75 0 0 1 4.75 0zm2.375 57h38V7.124h-38zm16.625 4.75a2.375 2.375 0 1 0 4.75 0 2.375 2.375 0 0 0-4.75 0zm45.124-11.875a2.375 2.375 0 1 0 4.75 0 2.375 2.375 0 0 0-4.75 0z"/></g></g></svg>