<svg xmlns="http://www.w3.org/2000/svg" width="156" height="151" viewBox="0 0 156 151"><g><g opacity=".56"><path fill="#fff" d="M58.5 34C90.809 34 117 60.191 117 92.5S90.809 151 58.5 151 0 124.809 0 92.5 26.191 34 58.5 34z"/></g><g opacity=".59"><path fill="#fff" d="M105 0c25.405 0 46 20.595 46 46s-20.595 46-46 46-46-20.595-46-46S79.595 0 105 0z"/></g><g opacity=".59"><path fill="#fff" d="M120.5 57c19.606 0 35.5 15.894 35.5 35.5S140.106 128 120.5 128 85 112.106 85 92.5 100.894 57 120.5 57z"/></g></g></svg>
