<svg xmlns="http://www.w3.org/2000/svg" width="80" height="82" viewBox="0 0 80 82"><g><g><path fill="#fff" d="M-1.988 51.25l.004-.004v.01zM49.26-.004L59.614 10.35c-1.475 2.424-.874 5.96 1.605 8.44 2.48 2.48 6.015 3.08 8.44 1.606L80.01 30.748l-5.08 5.081h2.513v15.544c-2.923.713-5.124 3.819-5.124 7.541 0 3.723 2.2 6.829 5.124 7.542v15.543H28.766l-.005.005-.004-.005H.578V66.456c2.924-.713 5.125-3.819 5.125-7.542 0-3.722-2.201-6.828-5.125-7.54V35.828H72.32v-2.565h-6.336a4.827 4.827 0 0 0-1.348-4.224L50.97 15.372a4.832 4.832 0 0 0-6.834 0l-9.582 9.583-.668.668-7.64 7.641h-10.25zM35.595 27.331l5.932 5.933H29.662zm8.541-8.542a4.832 4.832 0 0 1 6.834 0l10.25 10.25a4.827 4.827 0 0 1 1.347 4.225H44.943l-7.64-7.641zM10.827 48.654v20.52a5.127 5.127 0 0 0 5.124 5.13h46.12a5.127 5.127 0 0 0 5.124-5.13v-20.52a5.127 5.127 0 0 0-5.124-5.13h-46.12a5.127 5.127 0 0 0-5.124 5.13zm7.687-2.565h28.184v25.65H18.514a5.127 5.127 0 0 1-5.125-5.13V51.22a5.127 5.127 0 0 1 5.125-5.13zm40.995 0a5.127 5.127 0 0 1 5.124 5.13v15.39a5.127 5.127 0 0 1-5.124 5.13H49.26V46.09z"/></g></g></svg>