<svg xmlns="http://www.w3.org/2000/svg" width="52" height="52" viewBox="0 0 52 52"><g><g><path fill="#696b6a" d="M26 0c14.36 0 26 11.64 26 26S40.36 52 26 52 0 40.36 0 26 11.64 0 26 0z"/></g><g><path fill="#252825" d="M25.5 10C34.612 10 42 17.387 42 26.5 42 35.612 34.612 43 25.5 43 16.387 43 9 35.612 9 26.5 9 17.387 16.387 10 25.5 10zM12.3 26.5c0 3.186 1.128 6.108 3.008 8.389 1.459-2.417 4.99-7.063 11.363-8.85a66.227 66.227 0 0 0-1.276-2.58c-6.025 2.336-10.563 2.489-13.074 2.288-.014.25-.021.5-.021.753zm13.2 13.2c1.89 0 3.687-.397 5.312-1.113-.662-3.63-1.8-7.1-3.117-10.242-3.737 1.028-7.633 3.404-10.554 8.371A13.145 13.145 0 0 0 25.5 39.7zm-5.636-25.14a13.228 13.228 0 0 0-7.192 8.814c3.354.033 7.82-.542 11.637-1.912a69.124 69.124 0 0 0-4.445-6.902zm15.741 3.447c-2.708 1.836-5.253 3.254-7.609 4.345a55.947 55.947 0 0 1 1.475 3.124c2.657-.335 5.72-.181 9.225.72a13.144 13.144 0 0 0-3.09-8.189zm-2.447 19.245c2.88-2.055 4.9-5.24 5.414-8.906-1.62-.404-4.677-.956-8.144-.535 1.828 4.749 2.558 8.472 2.73 9.441zM25.5 13.3c-1.08 0-2.13.13-3.134.374a47.255 47.255 0 0 1 4.56 6.69c3.443-1.628 5.682-3.364 6.714-4.256A13.143 13.143 0 0 0 25.5 13.3z"/></g></g></svg>