<svg xmlns="http://www.w3.org/2000/svg" width="52" height="52" viewBox="0 0 52 52"><g><g><path fill="#696b6a" d="M26 0c14.36 0 26 11.64 26 26S40.36 52 26 52 0 40.36 0 26 11.64 0 26 0z"/></g><g><path fill="#272c2c" d="M35.166 13A4.827 4.827 0 0 1 40 17.82a4.828 4.828 0 0 1-4.834 4.822 4.827 4.827 0 0 1-3.632-1.64l-11.068 4.114a4.8 4.8 0 0 1 .126 2.221l10.567 5.144a4.832 4.832 0 0 1 4.007-2.125A4.827 4.827 0 0 1 40 35.178 4.828 4.828 0 0 1 35.166 40a4.828 4.828 0 0 1-4.831-4.7l-11.088-5.397a4.827 4.827 0 0 1-3.414 1.407c-2.67 0-4.833-2.156-4.833-4.816 0-2.66 2.164-4.816 4.833-4.816 1.102 0 2.117.367 2.93.985l11.599-4.312A4.827 4.827 0 0 1 35.167 13z"/></g></g></svg>