<svg xmlns="http://www.w3.org/2000/svg" width="52" height="52" viewBox="0 0 52 52"><g><g><path fill="#696b6a" d="M26 0c14.36 0 26 11.64 26 26S40.36 52 26 52 0 40.36 0 26 11.64 0 26 0z"/></g><g><path fill="#252825" d="M42 18.766l-2.719 2.766v.46c0 .506-.08.989-.196 1.458-.063 3.805-1.255 8.85-6.148 12.833-9.625 7.834-19.937.922-19.937.922 8.156 0 8.156-2.766 8.156-2.766-1.812 0-5.437-3.688-5.437-3.688.906.922 2.718 0 2.718 0-4.531-2.766-4.531-5.532-4.531-5.532.906.922 2.719 0 2.719 0-4.531-3.687-1.813-8.297-1.813-8.297.907 4.61 12.688 6.454 12.688 6.454l.15-.077c-.093-.421-.15-1.317-.15-1.767 0-3.31 2.637-5.532 5.89-5.532 1.791 0 3.375.83 4.456 2.113l.529-.27L41.094 16l-1.813 3.688z"/></g></g></svg>