<?xml version="1.0" encoding="utf-8"?><svg viewBox="0 0 800 800" xmlns="http://www.w3.org/2000/svg" xmlns:xlink="http://www.w3.org/1999/xlink"><style>:root>svg{display:none}:root>svg:target{display:block}</style><svg viewBox="0 0 68 85" id="beer" xmlns="http://www.w3.org/2000/svg"><path d="M0 25.5h1.416a7.072 7.072 0 005.667 2.833c.546 0 1.078-.062 1.589-.18C9.608 31.477 14.249 34 19.832 34c4.707 0 8.744-1.793 10.456-4.345C32.328 32.278 35.767 34 39.666 34c5.71 0 10.433-3.694 11.218-8.5H51V34h5.667v.1a10 10 0 011.417-.1C63.56 34 68 38.44 68 43.917V63.75c0 5.477-4.44 9.917-9.916 9.917a10 10 0 01-1.417-.1v.1H51V76.5h-.142a7.083 7.083 0 01-6.942 8.5H7.084A7.083 7.083 0 01.14 76.5H0zm62.332 34V48.166a5.667 5.667 0 00-5.666-5.667h-5.667v22.667h5.667a5.667 5.667 0 005.666-5.666zM8.5 70.833h5.667V39.666H8.499zm14.167 0h5.667V39.666h-5.667zm14.166 0H42.5V39.666h-5.667zM22.666-.001c5.765 0 10.524 4.304 11.24 9.875a12.528 12.528 0 015.76-1.375c6.26 0 11.333 4.44 11.333 9.917 0 5.477-5.074 9.917-11.333 9.917-3.9 0-7.338-1.723-9.378-4.346-1.713 2.553-5.749 4.346-10.456 4.346-5.583 0-10.224-2.524-11.16-5.846a7.083 7.083 0 112.741-12.51c.67-5.62 5.453-9.978 11.253-9.978z"/></svg><svg viewBox="0 0 24 24" id="burger" xmlns="http://www.w3.org/2000/svg"><path d="M4 18h16M4 12h16M4 6h16"/></svg><svg viewBox="0 0 80 70" id="camera" xmlns="http://www.w3.org/2000/svg"><path d="M7.5 10h17.578A4.4 4.4 0 0125 9.166V3.333C25 1.492 26.12 0 27.5 0h25C53.88 0 55 1.492 55 3.333v5.833a4.4 4.4 0 01-.078.834H72.5a7.5 7.5 0 017.5 7.5v45a7.5 7.5 0 01-7.5 7.5h-65A7.5 7.5 0 010 62.5v-45A7.5 7.5 0 017.5 10zm10 30c0 12.426 10.073 22.5 22.5 22.5 12.426 0 22.5-10.074 22.5-22.5 0-12.427-10.074-22.5-22.5-22.5-12.427 0-22.5 10.073-22.5 22.5zM40 25c8.284 0 15 6.715 15 15 0 8.284-6.716 15-15 15-8.285 0-15-6.716-15-15 0-8.285 6.715-15 15-15zm-5 15a5 5 0 109.999 0 5 5 0 00-10 0zM30 7.5h20V5H30z"/></svg><svg viewBox="0 0 24 24" id="close" xmlns="http://www.w3.org/2000/svg"><path d="M20.746 3.329a1 1 0 00-1.415 0l-7.294 7.294-7.294-7.294a1 1 0 10-1.414 1.414l7.294 7.294-7.294 7.294a1 1 0 001.414 1.415l7.294-7.295 7.294 7.295a1 1 0 001.415-1.415l-7.295-7.294 7.295-7.294a1 1 0 000-1.414z"/></svg><svg viewBox="0 0 76 76" id="devices" xmlns="http://www.w3.org/2000/svg"><path d="M71.25 23.75A4.75 4.75 0 0176 28.5v42.75A4.75 4.75 0 0171.25 76h-57a4.75 4.75 0 01-4.75-4.75v-2.375h57v-38H54.625V23.75zM4.75 0H47.5a4.75 4.75 0 014.75 4.75v57a4.75 4.75 0 01-4.75 4.75H4.75A4.75 4.75 0 010 61.75v-57A4.75 4.75 0 014.75 0zm2.375 57h38V7.124h-38zm16.625 4.75a2.375 2.375 0 104.75 0 2.375 2.375 0 00-4.75 0zm45.124-11.875a2.375 2.375 0 104.75 0 2.375 2.375 0 00-4.75 0z"/></svg><svg viewBox="0 0 156 151" id="heroCircle" xmlns="http://www.w3.org/2000/svg"><path d="M58.5 34C90.809 34 117 60.191 117 92.5S90.809 151 58.5 151 0 124.809 0 92.5 26.191 34 58.5 34z" opacity=".56"/><path d="M105 0c25.405 0 46 20.595 46 46s-20.595 46-46 46-46-20.595-46-46S79.595 0 105 0z" opacity=".59"/><path d="M120.5 57c19.606 0 35.5 15.894 35.5 35.5S140.106 128 120.5 128 85 112.106 85 92.5 100.894 57 120.5 57z" opacity=".59"/></svg><svg viewBox="0 0 13 14" id="login" xmlns="http://www.w3.org/2000/svg"><path d="M5.958.027S5.471 0 6.961 0c2.274 0 2.545 2.652 2.545 2.652s.027 2.79.027 3.446c0 .656-1.085 1.095-.893.902.027-.027 0 1.75 0 1.75l4.36 3.5V14H.032l-.027-1.723 4.328-3.554V7s-.866-.082-.866-.902V2.652S3.792.027 5.958.027z"/></svg><svg viewBox="0 0 80 82" id="tickets" xmlns="http://www.w3.org/2000/svg"><path d="M-1.988 51.25l.004-.004v.01zM49.26-.004L59.614 10.35c-1.475 2.424-.874 5.96 1.605 8.44 2.48 2.48 6.015 3.08 8.44 1.606L80.01 30.748l-5.08 5.081h2.513v15.544c-2.923.713-5.124 3.819-5.124 7.541 0 3.723 2.2 6.829 5.124 7.542v15.543H28.766l-.005.005-.004-.005H.578V66.456c2.924-.713 5.125-3.819 5.125-7.542 0-3.722-2.201-6.828-5.125-7.54V35.828H72.32v-2.565h-6.336a4.827 4.827 0 00-1.348-4.224L50.97 15.372a4.832 4.832 0 00-6.834 0l-9.582 9.583-.668.668-7.64 7.641h-10.25zM35.595 27.331l5.932 5.933H29.662zm8.541-8.542a4.832 4.832 0 016.834 0l10.25 10.25a4.827 4.827 0 011.347 4.225H44.943l-7.64-7.641zM10.827 48.654v20.52a5.127 5.127 0 005.124 5.13h46.12a5.127 5.127 0 005.124-5.13v-20.52a5.127 5.127 0 00-5.124-5.13h-46.12a5.127 5.127 0 00-5.124 5.13zm7.687-2.565h28.184v25.65H18.514a5.127 5.127 0 01-5.125-5.13V51.22a5.127 5.127 0 015.125-5.13zm40.995 0a5.127 5.127 0 015.124 5.13v15.39a5.127 5.127 0 01-5.124 5.13H49.26V46.09z"/></svg></svg>